<?xml version="1.0" encoding="utf-8"?>
<!-- Generator: Adobe Illustrator 16.0.3, SVG Export Plug-In . SVG Version: 6.00 Build 0)  -->
<!DOCTYPE svg PUBLIC "-//W3C//DTD SVG 1.1//EN" "http://www.w3.org/Graphics/SVG/1.1/DTD/svg11.dtd">
<svg version="1.1" id="Ebene_1" xmlns="http://www.w3.org/2000/svg" xmlns:xlink="http://www.w3.org/1999/xlink" x="0px" y="0px"
	 width="573.885px" height="560px" viewBox="0 0 573.885 560" enable-background="new 0 0 573.885 560" xml:space="preserve">
<rect x="-52.019" y="-1" fill-rule="evenodd" clip-rule="evenodd" fill="none" width="723" height="604"/>
<g>
	<path fill-rule="evenodd" clip-rule="evenodd" fill="#4D4D4D" d="M557.173,346.066c-0.431,4.38-0.956,8.751-1.276,13.14
		c-3.843,52.729-21.876,99.014-62.109,134.875c-32.299,28.789-70.035,46.606-112.771,53.439c-9.633,1.54-19.486,2.314-29.242,2.353
		c-46.981,0.18-94.006,1.207-140.938-0.356C138.553,547.109,82.057,515.9,44.7,452.729c-15.5-26.211-25.621-54.377-28.124-84.759
		c-1.827-22.17-1.987-44.478-2.91-67.21c26.281,0,51.471,0,77.326,0c0,1.974-0.033,3.915,0.005,5.854
		c0.322,16.465-0.424,33.037,1.186,49.377c5.611,56.987,37.388,100.36,98.57,114.074c12.667,2.839,25.974,3.699,39.005,3.866
		c38.314,0.491,76.642,0.418,114.959,0.08c21.732-0.191,42.959-3.895,62.838-13.16c37.655-17.552,59.844-47.496,68.849-87.537
		c4.778-21.248,3.766-42.948,3.834-64.533c0.009-2.618,0.002-5.235,0.002-8.709c26.072,0,51.503,0,76.934,0
		C557.173,315.403,557.173,330.735,557.173,346.066z"/>
	<path fill-rule="evenodd" clip-rule="evenodd" fill="#4D4D4D" d="M363.254,127.638c6.567,1.91,12.389,3.124,17.845,5.266
		c31.831,12.498,49.639,36.725,56.645,69.405c1.653,7.713,2.018,15.815,2.061,23.744c0.203,37.823,0.537,75.654-0.045,113.47
		c-0.5,32.474-13.656,59.232-39.876,78.842c-13.068,9.774-28.257,14.252-44.486,15.728c-17.597,1.6-34.846,0.722-51.313-6.172
		c-5.479-2.294-10.458-5.755-15.805-8.401c-1.51-0.747-4.09-1.346-5.198-0.584c-13.357,9.18-28.157,13.676-44.199,15.17
		c-19.721,1.839-38.913,0.14-56.878-8.442c-27.941-13.347-42.797-36.933-49.368-66.268c-1.579-7.05-1.993-14.479-2.028-21.737
		c-0.19-38.656,0.039-77.314-0.122-115.971c-0.202-48.65,30.631-82.121,72.525-92.802c1.079-0.275,2.222-0.298,3.964-0.519
		c0,2.501,0,4.625,0,6.748c0,66.984-0.021,133.967,0.061,200.951c0.004,3.604,0.398,7.356,1.455,10.778
		c2.731,8.844,12.617,13.384,23.367,11.158c10.78-2.232,15.531-8.305,15.569-20.343c0.072-23.161,0.022-46.322,0.023-69.483
		c0-1.99,0-3.98,0-6.387c25.471,0,50.667,0,76.458,0c0,1.845,0,3.625,0,5.404c0,23.827-0.065,47.655,0.045,71.481
		c0.029,6.317-0.02,13.136,6.627,16.619c8.108,4.248,16.7,4.627,24.817,0.065c6.36-3.575,7.734-10.104,7.811-16.795
		c0.142-12.495,0.044-24.994,0.044-37.49c0.001-55.32,0.001-110.64,0.001-165.96C363.254,132.995,363.254,130.877,363.254,127.638z"
		/>
	<path fill-rule="evenodd" clip-rule="evenodd" fill="#4D4D4D" d="M557.173,261.077c-22.988-0.08-45.976-0.161-68.964-0.238
		c-2.322-0.008-4.645-0.001-7.588-0.001c-0.137-2.148-0.334-4.061-0.37-5.976c-0.301-16.135,0.331-32.345-1.015-48.391
		c-4.789-57.134-40.206-102.088-97.731-115.465c-12.973-3.016-26.545-4.534-39.872-4.745c-38.813-0.615-77.646-0.48-116.465-0.118
		c-22.733,0.212-44.893,3.918-65.499,14.35c-35.315,17.878-56.632,46.624-64.485,85.031c-2.771,13.553-3.269,27.629-4.066,41.51
		c-0.629,10.949-0.126,21.963-0.126,33.375c-25.486,0-50.678,0-76.458,0c0-3.035-0.046-5.987,0.008-8.937
		c0.326-17.967-0.318-36.02,1.231-53.882c2.862-33.009,13.189-63.853,30.224-92.393C75.261,56.168,117.848,25.822,173.82,14.86
		c14.088-2.759,28.62-4.328,42.969-4.481c46.813-0.5,93.647-0.696,140.452,0.153c38.131,0.692,73.397,12.289,105.758,32.478
		c35.586,22.201,62.767,51.655,78.222,91.162c7.412,18.949,12.041,38.543,13.722,58.818c0.508,6.123,0.75,12.267,1.219,18.393
		c0.097,1.252,0.663,2.468,1.013,3.7C557.173,230.415,557.173,245.746,557.173,261.077z"/>
</g>
</svg>
