<svg viewBox="0 0 1024 1176.463" xmlns="http://www.w3.org/2000/svg"><path d="M216.285 743.424c0-2.58 30.967-56.772 30.967-56.772 6.626-2.326 14.265-3.67 22.218-3.67 21.03 0 39.866 9.397 52.537 24.222l.08.095c-14.96 27.114-29.482 49.878-45.253 71.68l1.384-2.01c-6.948 7.02-16.585 11.367-27.237 11.367-3.153 0-6.218-.38-9.15-1.1l.263.054c-15.795-2.953-27.59-16.633-27.59-33.068 0-3.865.652-7.577 1.853-11.034l-.07.236zM105.32 312.477v433.527c.708 78.098 63.83 141.22 141.86 141.927h23.294c0-2.578 30.967-56.77 98.06-170.314 7.744-15.484 18.063-30.967 28.384-49.03H208.544c-.65.04-1.41.063-2.174.063-17.53 0-32.267-11.972-36.477-28.186l-.058-.262c-.825-2.905-1.3-6.242-1.3-9.69 0-20.305 16.46-36.766 36.767-36.766.23 0 .462.002.692.006h-.035 95.48l121.284-211.604s-28.384-51.61-36.126-64.512c-3.56-5.665-5.672-12.553-5.672-19.934 0-10.327 4.134-19.687 10.837-26.518l-.006.006c15.484-15.484 41.288-23.226 67.092 18.063l10.32 15.484 10.32-15.484c23.227-33.546 38.71-30.967 51.61-28.384 20.646 5.162 33.547 28.383 15.484 64.51l-159.99 268.372h54.194c18.063-30.967 36.125-61.934 54.192-95.48-2.182-8.25-3.435-17.722-3.435-27.487 0-4.865.31-9.657.914-14.358l-.06.557c3.44-21.06 12.63-39.54 25.892-54.29l-.086.097 15.484 25.806c31.495-51.382 63.413-112.376 91.403-175.5l4.077-10.3c5.097-13.38 8.05-28.856 8.05-45.02 0-9.648-1.052-19.05-3.047-28.097l.16.86H246.844c-78.162 0-141.524 63.363-141.524 141.524v.434-.022zm743.192-2.583v436.442c0 92.45-74.947 167.398-167.398 167.398H507.88s-15.484 41.288 33.546 41.288H696.686c105.225 0 190.527-85.3 190.527-190.527v-.453.023-379.335c2.585-36.125-28.382-59.352-38.702-74.835zm-590.938 603.84H244.338c-92.452 0-167.398-74.947-167.398-167.398v-.352.018-433.524-.334c0-92.452 74.947-167.398 167.398-167.398h374.51c-16.906-11.567-37.798-18.47-60.303-18.47-3.298 0-6.562.147-9.784.438l.416-.03c-5.4 1.033-11.61 1.624-17.96 1.624-13.035 0-25.488-2.49-36.91-7.024l.678.237c-15.484-12.903-12.904-20.645-36.125-20.645H228.756c-105.224 0-190.524 85.3-190.524 190.524v.456-.023 469.653c-.03 1.282-.05 2.79-.05 4.305 0 99.584 79.036 180.707 177.8 184.066l.307.008c25.8 0 33.542-20.642 41.284-36.125zM649.81 593.75h61.934c41.288 0 49.03 20.646 49.03 28.384 2.58 20.646-7.744 46.45-49.03 46.45h-38.708L704 720.198c18.063 30.967 10.32 46.45 0 56.772-7.31 6.042-16.777 9.707-27.1 9.707-18.218 0-33.77-11.413-39.895-27.478l-.098-.294-36.126-61.934c-25.803 56.77-51.608 118.7-82.575 190.957h159.99c78.098-.708 141.22-63.83 141.927-141.86V294.417c-2.58-5.163-7.744-2.58-10.32 0-60.383 86.295-114.106 184.866-156.398 289.29l-3.596 10.046zm144.51-348.368c9.81-5.315 21.478-8.44 33.875-8.44 3.525 0 6.99.254 10.38.742l-.386-.046c15.896 5.477 29.103 15.35 38.554 28.166l.154.218c11.908 16.165 28.81 28.04 48.405 33.4l.625.146c10.32 2.58 28.383-25.805 41.288-51.61 10.778-17.7 17.41-38.978 18.06-61.753l.003-.18c-12.665-11.345-28.402-19.514-45.81-23.115l-.64-.11c-7.262 1.92-15.598 3.025-24.19 3.025-3.295 0-6.552-.162-9.763-.48l.406.033c-20.01-6.985-36.194-20.66-46.232-38.29l-.218-.42c-17.82-22.76-40.255-41.068-65.98-53.698l-1.113-.493c-23.907-11.676-51.647-20.665-80.776-25.555l-1.8-.25c-28.86-8.893-62.038-14.014-96.41-14.014-9.665 0-19.235.405-28.694 1.2l1.236-.085c-26.412 1.725-51.052 6.322-74.56 13.51l2.304-.605c-2.58 0-7.744 7.744-2.58 7.744s23.227 2.58 23.227 2.58-23.22 5.164-23.22 10.326 2.578 5.162 5.16 5.162 59.352-2.58 82.577 0c30.876 5.105 56.7 23.294 71.997 48.57l.26.46c12.4 21.833 19.71 47.96 19.71 75.796 0 19.1-3.442 37.4-9.74 54.306l.35-1.075c-38.708 85.155-345.79 609-361.27 645.126s-20.647 59.35 23.22 82.576 67.093 12.903 80-2.58c15.48-20.646 281.272-686.42 371.59-730.286z"/></svg>