<?xml version="1.0"?>
<svg xmlns="http://www.w3.org/2000/svg" viewBox="0 0 50 50">
    <path d="M 8.21875 2 C 7.1053223 2.0898047 6.028125 2.735 5.4375 3.78125 C 5.1415 4.30525 4.998 4.898 5 5.5 L 5 34.25 L 6.5625 35.34375 C 6.9895 35.57675 7.5105 35.57675 7.9375 35.34375 L 11 33.59375 L 11 18.5 C 11.017 16.578 12.578 15.01425 14.5 15.03125 C 15.089 15.03625 15.6755 15.211 16.1875 15.5 L 25 20.40625 L 25 18.53125 C 24.999 17.52625 25.8065 16.71975 26.8125 16.71875 C 27.1255 16.71875 27.44675 16.7855 27.71875 16.9375 L 34.1875 20.5625 L 38.34375 18.25 L 10.1875 2.4375 C 9.55975 2.0835 8.8868066 1.9461172 8.21875 2 z M 14.375 17 C 13.901445 17.037051 13.439375 17.305625 13.1875 17.75 C 13.0585 17.977 12.998 18.24 13 18.5 L 13 32.5 L 25 25.75 L 25 22.6875 L 15.21875 17.1875 C 14.952125 17.036375 14.659133 16.97777 14.375 17 z M 27 18.84375 L 27 31.15625 L 38 25 L 27 18.84375 z M 40.375 19.375 L 36.21875 21.71875 L 39.46875 23.53125 C 40.27775 23.98525 40.54775 25.0035 40.09375 25.8125 C 39.94275 26.0815 39.73875 26.31775 39.46875 26.46875 L 37.625 27.46875 L 41.78125 29.8125 L 45.625 27.65625 C 47.097 26.82525 47.61225 24.94075 46.78125 23.46875 C 46.50725 22.98275 46.11 22.5865 45.625 22.3125 L 45.625 22.34375 L 40.375 19.375 z M 25 28 L 13 34.75 L 13 46 L 39.75 31 L 35.59375 28.625 L 27.71875 33.0625 C 26.84475 33.5595 25.747 33.249 25.25 32.375 C 25.093 32.098 24.998 31.78675 25 31.46875 L 25 28 z M 11 35.875 L 8.90625 37 C 7.84925 37.601 6.557 37.601 5.5 37 L 5 36.6875 L 5 44.53125 C 5.008 46.44725 6.55175 47.97675 8.46875 47.96875 C 9.06775 47.96675 9.6675 47.82725 10.1875 47.53125 L 11 47.0625 L 11 35.875 z"/>
</svg>
