<svg height="32" viewBox="0 0 32 32" width="32" xmlns="http://www.w3.org/2000/svg"><path d="m30.865 3.448-6.583-3.167c-.766-.37-1.677-.214-2.276.385l-12.609 11.505-5.495-4.167c-.51-.391-1.229-.359-1.703.073l-1.76 1.604c-.583.526-.583 1.443-.005 1.969l4.766 4.349-4.766 4.349c-.578.526-.578 1.443.005 1.969l1.76 1.604c.479.432 1.193.464 1.703.073l5.495-4.172 12.615 11.51c.594.599 1.505.755 2.271.385l6.589-3.172c.693-.333 1.13-1.031 1.13-1.802v-21.495c0-.766-.443-1.469-1.135-1.802zm-6.86 19.818-9.573-7.266 9.573-7.266z"/></svg>